<svg width="110" height="59" viewBox="0 0 110 59" fill="none" xmlns="http://www.w3.org/2000/svg">
<g filter="url(#filter0_d)">
<path d="M15.6823 18.275L27.9904 48.875L25.2963 50.15L12.8337 19.9474L15.6823 18.275Z" fill="#8D8D8D"/>
<path d="M15.6823 18.275L27.9904 48.875L25.2963 50.15L12.8337 19.9474L15.6823 18.275Z" fill="url(#paint0_linear)"/>
<path d="M19.4177 46.7941L17.1066 48.0526L9.27291 28.337L11.7654 27.0786L15.6823 36.7266L19.4177 46.7941Z" fill="#8D8D8D"/>
<path d="M19.4177 46.7941L17.1066 48.0526L9.27291 28.337L11.7654 27.0786L15.6823 36.7266L19.4177 46.7941Z" fill="url(#paint1_linear)"/>
<path d="M7.13646 33.7903L12.4776 46.7941L10.3411 48.0526L5 35.0487L7.13646 33.7903Z" fill="#8D8D8D"/>
<path d="M7.13646 33.7903L12.4776 46.7941L10.3411 48.0526L5 35.0487L7.13646 33.7903Z" fill="url(#paint2_linear)"/>
<path d="M87.6097 30.175C62.3014 18.8178 48.6229 20.0495 23.3144 31.45L24.2281 33.7903C48.4301 21.7983 61.5633 21.4977 86.8303 32.725L87.6097 30.175Z" fill="#8D8D8D"/>
<path d="M87.6097 30.175C62.3014 18.8178 48.6229 20.0495 23.3144 31.45L24.2281 33.7903C48.4301 21.7983 61.5633 21.4977 86.8303 32.725L87.6097 30.175Z" fill="url(#paint3_linear)"/>
<path d="M15.6823 18.275L27.9904 48.875L25.2963 50.15L12.8337 19.9474L15.6823 18.275Z" stroke="white"/>
<path d="M19.4177 46.7941L17.1066 48.0526L9.27291 28.337L11.7654 27.0786L15.6823 36.7266L19.4177 46.7941Z" stroke="white"/>
<path d="M7.13646 33.7903L12.4776 46.7941L10.3411 48.0526L5 35.0487L7.13646 33.7903Z" stroke="white"/>
<path d="M87.6097 30.175C62.3014 18.8178 48.6229 20.0495 23.3144 31.45L24.2281 33.7903C48.4301 21.7983 61.5633 21.4977 86.8303 32.725L87.6097 30.175Z" stroke="white"/>
</g>
<g filter="url(#filter1_d)">
<ellipse cx="56.0465" cy="25.5" rx="24.5491" ry="25.5" fill="#979797"/>
<ellipse cx="56.0465" cy="25.5" rx="24.5491" ry="25.5" fill="url(#paint4_linear)"/>
</g>
<g filter="url(#filter2_d)">
<g filter="url(#filter3_dd)">
<ellipse cx="63.8399" cy="9.775" rx="1.169" ry="1.275" fill="#C92AF1"/>
<path d="M63.8399 11.55C64.8016 11.55 65.5089 10.7136 65.5089 9.775C65.5089 8.83644 64.8016 8 63.8399 8C62.8782 8 62.1709 8.83644 62.1709 9.775C62.1709 10.7136 62.8782 11.55 63.8399 11.55Z" stroke="black"/>
</g>
</g>
<g filter="url(#filter4_d)">
<path d="M102.662 29.75L100.714 36.975L98.3756 44.625L100.714 45.475L105 30.6L102.662 29.75Z" fill="#737373"/>
<path d="M102.662 29.75L100.714 36.975L98.3756 44.625L100.714 45.475L105 30.6L102.662 29.75Z" fill="url(#paint5_linear)"/>
<path d="M98.3812 22.95L91.3672 46.75L94.0949 47.6L101.109 23.8L98.3812 22.95Z" fill="#737373"/>
<path d="M98.3812 22.95L91.3672 46.75L94.0949 47.6L101.109 23.8L98.3812 22.95Z" fill="url(#paint6_linear)"/>
<path d="M93.8342 15.725L84.0925 48.45L86.8202 49.725L96.5619 16.575L93.8342 15.725Z" fill="#737373"/>
<path d="M93.8342 15.725L84.0925 48.45L86.8202 49.725L96.5619 16.575L93.8342 15.725Z" fill="url(#paint7_linear)"/>
<path d="M102.662 29.75L100.714 36.975L98.3756 44.625L100.714 45.475L105 30.6L102.662 29.75Z" stroke="white"/>
<path d="M98.3812 22.95L91.3672 46.75L94.0949 47.6L101.109 23.8L98.3812 22.95Z" stroke="white"/>
<path d="M93.8342 15.725L84.0925 48.45L86.8202 49.725L96.5619 16.575L93.8342 15.725Z" stroke="white"/>
</g>
<g filter="url(#filter5_d)">
<g filter="url(#filter6_dd)">
<ellipse cx="55.2672" cy="6.375" rx="1.169" ry="1.275" fill="#C92AF1"/>
<path d="M55.2672 8.15C56.2289 8.15 56.9362 7.31357 56.9362 6.375C56.9362 5.43643 56.2289 4.6 55.2672 4.6C54.3055 4.6 53.5982 5.43643 53.5982 6.375C53.5982 7.31357 54.3055 8.15 55.2672 8.15Z" stroke="black"/>
</g>
</g>
<g filter="url(#filter7_d)">
<g filter="url(#filter8_dd)">
<ellipse cx="46.6945" cy="14.025" rx="1.169" ry="1.275" fill="#C92AF1"/>
<path d="M46.6945 15.8C47.6562 15.8 48.3635 14.9636 48.3635 14.025C48.3635 13.0864 47.6562 12.25 46.6945 12.25C45.7328 12.25 45.0255 13.0864 45.0255 14.025C45.0255 14.9636 45.7328 15.8 46.6945 15.8Z" stroke="black"/>
</g>
</g>
<g filter="url(#filter9_d)">
<g filter="url(#filter10_dd)">
<ellipse cx="42.7978" cy="25.925" rx="1.169" ry="1.275" fill="#C92AF1"/>
<path d="M42.7978 27.7C43.7595 27.7 44.4668 26.8636 44.4668 25.925C44.4668 24.9864 43.7595 24.15 42.7978 24.15C41.8361 24.15 41.1288 24.9864 41.1288 25.925C41.1288 26.8636 41.8361 27.7 42.7978 27.7Z" stroke="black"/>
</g>
</g>
<g filter="url(#filter11_d)">
<path d="M55.2672 8.5V43.775L57.9949 47.6" stroke="black"/>
</g>
<g filter="url(#filter12_d)">
<path d="M63.8399 11.475V20.4L55.2672 28.05" stroke="black"/>
</g>
<g filter="url(#filter13_d)">
<path d="M46.6945 15.725V19.125L54.8775 24.225" stroke="black"/>
</g>
<g filter="url(#filter14_d)">
<path d="M42.7978 27.625V31.025L55.2672 37.825" stroke="black"/>
</g>
<g filter="url(#filter15_dd)">
<ellipse cx="70.0746" cy="20.825" rx="1.169" ry="1.275" fill="#C92AF1"/>
<path d="M70.0746 22.6C71.0363 22.6 71.7436 21.7636 71.7436 20.825C71.7436 19.8864 71.0363 19.05 70.0746 19.05C69.1129 19.05 68.4056 19.8864 68.4056 20.825C68.4056 21.7636 69.1129 22.6 70.0746 22.6Z" stroke="black"/>
</g>
<g filter="url(#filter16_d)">
<path d="M70.0746 22.525V27.625L55.2672 34.85" stroke="black"/>
</g>
<defs>
<filter id="filter0_d" x="0.372849" y="17.55" width="91.8439" height="41.277" filterUnits="userSpaceOnUse" color-interpolation-filters="sRGB">
<feFlood flood-opacity="0" result="BackgroundImageFix"/>
<feColorMatrix in="SourceAlpha" type="matrix" values="0 0 0 0 0 0 0 0 0 0 0 0 0 0 0 0 0 0 127 0"/>
<feOffset dy="4"/>
<feGaussianBlur stdDeviation="2"/>
<feColorMatrix type="matrix" values="0 0 0 0 0 0 0 0 0 0 0 0 0 0 0 0 0 0 0.4 0"/>
<feBlend mode="normal" in2="BackgroundImageFix" result="effect1_dropShadow"/>
<feBlend mode="normal" in="SourceGraphic" in2="effect1_dropShadow" result="shape"/>
</filter>
<filter id="filter1_d" x="27.4974" y="0" width="57.0982" height="59" filterUnits="userSpaceOnUse" color-interpolation-filters="sRGB">
<feFlood flood-opacity="0" result="BackgroundImageFix"/>
<feColorMatrix in="SourceAlpha" type="matrix" values="0 0 0 0 0 0 0 0 0 0 0 0 0 0 0 0 0 0 127 0"/>
<feOffset dy="4"/>
<feGaussianBlur stdDeviation="2"/>
<feColorMatrix type="matrix" values="0 0 0 0 0 0 0 0 0 0 0 0 0 0 0 0 0 0 0.6 0"/>
<feBlend mode="normal" in2="BackgroundImageFix" result="effect1_dropShadow"/>
<feBlend mode="normal" in="SourceGraphic" in2="effect1_dropShadow" result="shape"/>
</filter>
<filter id="filter2_d" x="57.6709" y="7.5" width="12.338" height="12.55" filterUnits="userSpaceOnUse" color-interpolation-filters="sRGB">
<feFlood flood-opacity="0" result="BackgroundImageFix"/>
<feColorMatrix in="SourceAlpha" type="matrix" values="0 0 0 0 0 0 0 0 0 0 0 0 0 0 0 0 0 0 127 0"/>
<feOffset dy="4"/>
<feGaussianBlur stdDeviation="2"/>
<feColorMatrix type="matrix" values="0 0 0 0 0 0 0 0 0 0 0 0 0 0 0 0 0 0 0.25 0"/>
<feBlend mode="normal" in2="BackgroundImageFix" result="effect1_dropShadow"/>
<feBlend mode="normal" in="SourceGraphic" in2="effect1_dropShadow" result="shape"/>
</filter>
<filter id="filter3_dd" x="57.6709" y="7.5" width="12.338" height="12.55" filterUnits="userSpaceOnUse" color-interpolation-filters="sRGB">
<feFlood flood-opacity="0" result="BackgroundImageFix"/>
<feColorMatrix in="SourceAlpha" type="matrix" values="0 0 0 0 0 0 0 0 0 0 0 0 0 0 0 0 0 0 127 0"/>
<feOffset dy="4"/>
<feGaussianBlur stdDeviation="2"/>
<feColorMatrix type="matrix" values="0 0 0 0 0 0 0 0 0 0 0 0 0 0 0 0 0 0 0.25 0"/>
<feBlend mode="normal" in2="BackgroundImageFix" result="effect1_dropShadow"/>
<feColorMatrix in="SourceAlpha" type="matrix" values="0 0 0 0 0 0 0 0 0 0 0 0 0 0 0 0 0 0 127 0"/>
<feOffset dy="4"/>
<feGaussianBlur stdDeviation="2"/>
<feColorMatrix type="matrix" values="0 0 0 0 0 0 0 0 0 0 0 0 0 0 0 0 0 0 0.25 0"/>
<feBlend mode="normal" in2="effect1_dropShadow" result="effect2_dropShadow"/>
<feBlend mode="normal" in="SourceGraphic" in2="effect2_dropShadow" result="shape"/>
</filter>
<filter id="filter4_d" x="79.4903" y="15.097" width="30.1194" height="43.3275" filterUnits="userSpaceOnUse" color-interpolation-filters="sRGB">
<feFlood flood-opacity="0" result="BackgroundImageFix"/>
<feColorMatrix in="SourceAlpha" type="matrix" values="0 0 0 0 0 0 0 0 0 0 0 0 0 0 0 0 0 0 127 0"/>
<feOffset dy="4"/>
<feGaussianBlur stdDeviation="2"/>
<feColorMatrix type="matrix" values="0 0 0 0 0 0 0 0 0 0 0 0 0 0 0 0 0 0 0.4 0"/>
<feBlend mode="normal" in2="BackgroundImageFix" result="effect1_dropShadow"/>
<feBlend mode="normal" in="SourceGraphic" in2="effect1_dropShadow" result="shape"/>
</filter>
<filter id="filter5_d" x="49.0982" y="4.1" width="12.338" height="12.55" filterUnits="userSpaceOnUse" color-interpolation-filters="sRGB">
<feFlood flood-opacity="0" result="BackgroundImageFix"/>
<feColorMatrix in="SourceAlpha" type="matrix" values="0 0 0 0 0 0 0 0 0 0 0 0 0 0 0 0 0 0 127 0"/>
<feOffset dy="4"/>
<feGaussianBlur stdDeviation="2"/>
<feColorMatrix type="matrix" values="0 0 0 0 0 0 0 0 0 0 0 0 0 0 0 0 0 0 0.25 0"/>
<feBlend mode="normal" in2="BackgroundImageFix" result="effect1_dropShadow"/>
<feBlend mode="normal" in="SourceGraphic" in2="effect1_dropShadow" result="shape"/>
</filter>
<filter id="filter6_dd" x="49.0982" y="4.1" width="12.338" height="12.55" filterUnits="userSpaceOnUse" color-interpolation-filters="sRGB">
<feFlood flood-opacity="0" result="BackgroundImageFix"/>
<feColorMatrix in="SourceAlpha" type="matrix" values="0 0 0 0 0 0 0 0 0 0 0 0 0 0 0 0 0 0 127 0"/>
<feOffset dy="4"/>
<feGaussianBlur stdDeviation="2"/>
<feColorMatrix type="matrix" values="0 0 0 0 0 0 0 0 0 0 0 0 0 0 0 0 0 0 0.25 0"/>
<feBlend mode="normal" in2="BackgroundImageFix" result="effect1_dropShadow"/>
<feColorMatrix in="SourceAlpha" type="matrix" values="0 0 0 0 0 0 0 0 0 0 0 0 0 0 0 0 0 0 127 0"/>
<feOffset dy="4"/>
<feGaussianBlur stdDeviation="2"/>
<feColorMatrix type="matrix" values="0 0 0 0 0 0 0 0 0 0 0 0 0 0 0 0 0 0 0.25 0"/>
<feBlend mode="normal" in2="effect1_dropShadow" result="effect2_dropShadow"/>
<feBlend mode="normal" in="SourceGraphic" in2="effect2_dropShadow" result="shape"/>
</filter>
<filter id="filter7_d" x="40.5255" y="11.75" width="12.338" height="12.55" filterUnits="userSpaceOnUse" color-interpolation-filters="sRGB">
<feFlood flood-opacity="0" result="BackgroundImageFix"/>
<feColorMatrix in="SourceAlpha" type="matrix" values="0 0 0 0 0 0 0 0 0 0 0 0 0 0 0 0 0 0 127 0"/>
<feOffset dy="4"/>
<feGaussianBlur stdDeviation="2"/>
<feColorMatrix type="matrix" values="0 0 0 0 0 0 0 0 0 0 0 0 0 0 0 0 0 0 0.25 0"/>
<feBlend mode="normal" in2="BackgroundImageFix" result="effect1_dropShadow"/>
<feBlend mode="normal" in="SourceGraphic" in2="effect1_dropShadow" result="shape"/>
</filter>
<filter id="filter8_dd" x="40.5255" y="11.75" width="12.338" height="12.55" filterUnits="userSpaceOnUse" color-interpolation-filters="sRGB">
<feFlood flood-opacity="0" result="BackgroundImageFix"/>
<feColorMatrix in="SourceAlpha" type="matrix" values="0 0 0 0 0 0 0 0 0 0 0 0 0 0 0 0 0 0 127 0"/>
<feOffset dy="4"/>
<feGaussianBlur stdDeviation="2"/>
<feColorMatrix type="matrix" values="0 0 0 0 0 0 0 0 0 0 0 0 0 0 0 0 0 0 0.25 0"/>
<feBlend mode="normal" in2="BackgroundImageFix" result="effect1_dropShadow"/>
<feColorMatrix in="SourceAlpha" type="matrix" values="0 0 0 0 0 0 0 0 0 0 0 0 0 0 0 0 0 0 127 0"/>
<feOffset dy="4"/>
<feGaussianBlur stdDeviation="2"/>
<feColorMatrix type="matrix" values="0 0 0 0 0 0 0 0 0 0 0 0 0 0 0 0 0 0 0.25 0"/>
<feBlend mode="normal" in2="effect1_dropShadow" result="effect2_dropShadow"/>
<feBlend mode="normal" in="SourceGraphic" in2="effect2_dropShadow" result="shape"/>
</filter>
<filter id="filter9_d" x="36.6288" y="23.65" width="12.338" height="12.55" filterUnits="userSpaceOnUse" color-interpolation-filters="sRGB">
<feFlood flood-opacity="0" result="BackgroundImageFix"/>
<feColorMatrix in="SourceAlpha" type="matrix" values="0 0 0 0 0 0 0 0 0 0 0 0 0 0 0 0 0 0 127 0"/>
<feOffset dy="4"/>
<feGaussianBlur stdDeviation="2"/>
<feColorMatrix type="matrix" values="0 0 0 0 0 0 0 0 0 0 0 0 0 0 0 0 0 0 0.25 0"/>
<feBlend mode="normal" in2="BackgroundImageFix" result="effect1_dropShadow"/>
<feBlend mode="normal" in="SourceGraphic" in2="effect1_dropShadow" result="shape"/>
</filter>
<filter id="filter10_dd" x="36.6288" y="23.65" width="12.338" height="12.55" filterUnits="userSpaceOnUse" color-interpolation-filters="sRGB">
<feFlood flood-opacity="0" result="BackgroundImageFix"/>
<feColorMatrix in="SourceAlpha" type="matrix" values="0 0 0 0 0 0 0 0 0 0 0 0 0 0 0 0 0 0 127 0"/>
<feOffset dy="4"/>
<feGaussianBlur stdDeviation="2"/>
<feColorMatrix type="matrix" values="0 0 0 0 0 0 0 0 0 0 0 0 0 0 0 0 0 0 0.25 0"/>
<feBlend mode="normal" in2="BackgroundImageFix" result="effect1_dropShadow"/>
<feColorMatrix in="SourceAlpha" type="matrix" values="0 0 0 0 0 0 0 0 0 0 0 0 0 0 0 0 0 0 127 0"/>
<feOffset dy="4"/>
<feGaussianBlur stdDeviation="2"/>
<feColorMatrix type="matrix" values="0 0 0 0 0 0 0 0 0 0 0 0 0 0 0 0 0 0 0.25 0"/>
<feBlend mode="normal" in2="effect1_dropShadow" result="effect2_dropShadow"/>
<feBlend mode="normal" in="SourceGraphic" in2="effect2_dropShadow" result="shape"/>
</filter>
<filter id="filter11_d" x="53.7672" y="8.5" width="7.63477" height="44.3903" filterUnits="userSpaceOnUse" color-interpolation-filters="sRGB">
<feFlood flood-opacity="0" result="BackgroundImageFix"/>
<feColorMatrix in="SourceAlpha" type="matrix" values="0 0 0 0 0 0 0 0 0 0 0 0 0 0 0 0 0 0 127 0"/>
<feOffset dx="1" dy="3"/>
<feGaussianBlur stdDeviation="1"/>
<feColorMatrix type="matrix" values="0 0 0 0 0 0 0 0 0 0 0 0 0 0 0 0 0 0 0.6 0"/>
<feBlend mode="normal" in2="BackgroundImageFix" result="effect1_dropShadow"/>
<feBlend mode="normal" in="SourceGraphic" in2="effect1_dropShadow" result="shape"/>
</filter>
<filter id="filter12_d" x="52.9343" y="11.475" width="13.4056" height="22.9481" filterUnits="userSpaceOnUse" color-interpolation-filters="sRGB">
<feFlood flood-opacity="0" result="BackgroundImageFix"/>
<feColorMatrix in="SourceAlpha" type="matrix" values="0 0 0 0 0 0 0 0 0 0 0 0 0 0 0 0 0 0 127 0"/>
<feOffset dy="4"/>
<feGaussianBlur stdDeviation="1"/>
<feColorMatrix type="matrix" values="0 0 0 0 0 0 0 0 0 0 0 0 0 0 0 0 0 0 0.6 0"/>
<feBlend mode="normal" in2="BackgroundImageFix" result="effect1_dropShadow"/>
<feBlend mode="normal" in="SourceGraphic" in2="effect1_dropShadow" result="shape"/>
</filter>
<filter id="filter13_d" x="44.1945" y="15.725" width="12.9475" height="14.9243" filterUnits="userSpaceOnUse" color-interpolation-filters="sRGB">
<feFlood flood-opacity="0" result="BackgroundImageFix"/>
<feColorMatrix in="SourceAlpha" type="matrix" values="0 0 0 0 0 0 0 0 0 0 0 0 0 0 0 0 0 0 127 0"/>
<feOffset dy="4"/>
<feGaussianBlur stdDeviation="1"/>
<feColorMatrix type="matrix" values="0 0 0 0 0 0 0 0 0 0 0 0 0 0 0 0 0 0 0.6 0"/>
<feBlend mode="normal" in2="BackgroundImageFix" result="effect1_dropShadow"/>
<feBlend mode="normal" in="SourceGraphic" in2="effect1_dropShadow" result="shape"/>
</filter>
<filter id="filter14_d" x="40.2978" y="27.625" width="17.2088" height="16.639" filterUnits="userSpaceOnUse" color-interpolation-filters="sRGB">
<feFlood flood-opacity="0" result="BackgroundImageFix"/>
<feColorMatrix in="SourceAlpha" type="matrix" values="0 0 0 0 0 0 0 0 0 0 0 0 0 0 0 0 0 0 127 0"/>
<feOffset dy="4"/>
<feGaussianBlur stdDeviation="1"/>
<feColorMatrix type="matrix" values="0 0 0 0 0 0 0 0 0 0 0 0 0 0 0 0 0 0 0.6 0"/>
<feBlend mode="normal" in2="BackgroundImageFix" result="effect1_dropShadow"/>
<feBlend mode="normal" in="SourceGraphic" in2="effect1_dropShadow" result="shape"/>
</filter>
<filter id="filter15_dd" x="63.9056" y="18.55" width="12.338" height="12.55" filterUnits="userSpaceOnUse" color-interpolation-filters="sRGB">
<feFlood flood-opacity="0" result="BackgroundImageFix"/>
<feColorMatrix in="SourceAlpha" type="matrix" values="0 0 0 0 0 0 0 0 0 0 0 0 0 0 0 0 0 0 127 0"/>
<feOffset dy="4"/>
<feGaussianBlur stdDeviation="2"/>
<feColorMatrix type="matrix" values="0 0 0 0 0 0 0 0 0 0 0 0 0 0 0 0 0 0 0.25 0"/>
<feBlend mode="normal" in2="BackgroundImageFix" result="effect1_dropShadow"/>
<feColorMatrix in="SourceAlpha" type="matrix" values="0 0 0 0 0 0 0 0 0 0 0 0 0 0 0 0 0 0 127 0"/>
<feOffset dy="4"/>
<feGaussianBlur stdDeviation="2"/>
<feColorMatrix type="matrix" values="0 0 0 0 0 0 0 0 0 0 0 0 0 0 0 0 0 0 0.25 0"/>
<feBlend mode="normal" in2="effect1_dropShadow" result="effect2_dropShadow"/>
<feBlend mode="normal" in="SourceGraphic" in2="effect2_dropShadow" result="shape"/>
</filter>
<filter id="filter16_d" x="53.0479" y="22.525" width="19.5266" height="18.7744" filterUnits="userSpaceOnUse" color-interpolation-filters="sRGB">
<feFlood flood-opacity="0" result="BackgroundImageFix"/>
<feColorMatrix in="SourceAlpha" type="matrix" values="0 0 0 0 0 0 0 0 0 0 0 0 0 0 0 0 0 0 127 0"/>
<feOffset dy="4"/>
<feGaussianBlur stdDeviation="1"/>
<feColorMatrix type="matrix" values="0 0 0 0 0 0 0 0 0 0 0 0 0 0 0 0 0 0 0.6 0"/>
<feBlend mode="normal" in2="BackgroundImageFix" result="effect1_dropShadow"/>
<feBlend mode="normal" in="SourceGraphic" in2="effect1_dropShadow" result="shape"/>
</filter>
<linearGradient id="paint0_linear" x1="46.3048" y1="18.275" x2="46.3048" y2="50.15" gradientUnits="userSpaceOnUse">
<stop stop-color="white"/>
<stop offset="1" stop-color="white" stop-opacity="0"/>
</linearGradient>
<linearGradient id="paint1_linear" x1="46.3048" y1="18.275" x2="46.3048" y2="50.15" gradientUnits="userSpaceOnUse">
<stop stop-color="white"/>
<stop offset="1" stop-color="white" stop-opacity="0"/>
</linearGradient>
<linearGradient id="paint2_linear" x1="46.3048" y1="18.275" x2="46.3048" y2="50.15" gradientUnits="userSpaceOnUse">
<stop stop-color="white"/>
<stop offset="1" stop-color="white" stop-opacity="0"/>
</linearGradient>
<linearGradient id="paint3_linear" x1="46.3048" y1="18.275" x2="46.3048" y2="50.15" gradientUnits="userSpaceOnUse">
<stop stop-color="white"/>
<stop offset="1" stop-color="white" stop-opacity="0"/>
</linearGradient>
<linearGradient id="paint4_linear" x1="56.0465" y1="0" x2="56.0465" y2="51" gradientUnits="userSpaceOnUse">
<stop stop-color="white"/>
<stop offset="1" stop-color="white" stop-opacity="0"/>
</linearGradient>
<linearGradient id="paint5_linear" x1="94.5463" y1="15.725" x2="94.5463" y2="49.725" gradientUnits="userSpaceOnUse">
<stop stop-color="white"/>
<stop offset="1" stop-color="white" stop-opacity="0"/>
</linearGradient>
<linearGradient id="paint6_linear" x1="94.5463" y1="15.725" x2="94.5463" y2="49.725" gradientUnits="userSpaceOnUse">
<stop stop-color="white"/>
<stop offset="1" stop-color="white" stop-opacity="0"/>
</linearGradient>
<linearGradient id="paint7_linear" x1="94.5463" y1="15.725" x2="94.5463" y2="49.725" gradientUnits="userSpaceOnUse">
<stop stop-color="white"/>
<stop offset="1" stop-color="white" stop-opacity="0"/>
</linearGradient>
</defs>
</svg>
