<svg width="111" height="57" viewBox="0 0 111 57" fill="none" xmlns="http://www.w3.org/2000/svg">
<g filter="url(#filter0_d)">
<path d="M15.7891 17.5583L28.2203 46.9583L25.4993 48.1833L12.912 19.1652L15.7891 17.5583Z" fill="black"/>
<path d="M19.5619 44.9591L17.2277 46.1682L9.31564 27.2258L11.8331 26.0167L15.7891 35.2864L19.5619 44.9591Z" fill="black"/>
<path d="M7.15782 32.4652L12.5524 44.9591L10.3946 46.1682L5 33.6742L7.15782 32.4652Z" fill="black"/>
<path d="M88.4358 28.9917C62.8744 18.0799 49.0592 19.2633 23.4975 30.2167L24.4204 32.4652C48.8644 20.9435 62.1289 20.6547 87.6486 31.4417L88.4358 28.9917Z" fill="black"/>
<path d="M15.7891 17.5583L28.2203 46.9583L25.4993 48.1833L12.912 19.1652L15.7891 17.5583Z" stroke="black"/>
<path d="M19.5619 44.9591L17.2277 46.1682L9.31564 27.2258L11.8331 26.0167L15.7891 35.2864L19.5619 44.9591Z" stroke="black"/>
<path d="M7.15782 32.4652L12.5524 44.9591L10.3946 46.1682L5 33.6742L7.15782 32.4652Z" stroke="black"/>
<path d="M88.4358 28.9917C62.8744 18.0799 49.0592 19.2633 23.4975 30.2167L24.4204 32.4652C48.8644 20.9435 62.1289 20.6547 87.6486 31.4417L88.4358 28.9917Z" stroke="black"/>
</g>
<g filter="url(#filter1_d)">
<ellipse cx="56.557" cy="24.5" rx="24.7946" ry="24.5" fill="#979797"/>
<ellipse cx="56.557" cy="24.5" rx="24.7946" ry="24.5" fill="url(#paint0_linear)"/>
</g>
<g filter="url(#filter2_d)">
<g filter="url(#filter3_dd)">
<ellipse cx="64.4283" cy="9.39167" rx="1.18069" ry="1.225" fill="#C92AF1"/>
<path d="M64.4283 11.1167C65.3737 11.1167 66.109 10.3268 66.109 9.39167C66.109 8.4565 65.3737 7.66667 64.4283 7.66667C63.4829 7.66667 62.7476 8.4565 62.7476 9.39167C62.7476 10.3268 63.4829 11.1167 64.4283 11.1167Z" stroke="black"/>
</g>
</g>
<g filter="url(#filter4_d)">
<path d="M103.639 28.5833L101.671 35.525L99.3094 42.875L101.671 43.6917L106 29.4L103.639 28.5833Z" fill="black"/>
<path d="M99.315 22.05L92.2309 44.9167L94.9858 45.7333L102.07 22.8667L99.315 22.05Z" fill="black"/>
<path d="M94.7226 15.1083L84.8834 46.55L87.6384 47.775L97.4775 15.925L94.7226 15.1083Z" fill="black"/>
<path d="M103.639 28.5833L101.671 35.525L99.3094 42.875L101.671 43.6917L106 29.4L103.639 28.5833Z" stroke="black"/>
<path d="M99.315 22.05L92.2309 44.9167L94.9858 45.7333L102.07 22.8667L99.315 22.05Z" stroke="black"/>
<path d="M94.7226 15.1083L84.8834 46.55L87.6384 47.775L97.4775 15.925L94.7226 15.1083Z" stroke="black"/>
</g>
<g filter="url(#filter5_d)">
<g filter="url(#filter6_dd)">
<ellipse cx="55.7699" cy="6.12499" rx="1.18069" ry="1.225" fill="#C92AF1"/>
<path d="M55.7699 7.84999C56.7153 7.84999 57.4506 7.06016 57.4506 6.12499C57.4506 5.18982 56.7153 4.39999 55.7699 4.39999C54.8244 4.39999 54.0892 5.18982 54.0892 6.12499C54.0892 7.06016 54.8244 7.84999 55.7699 7.84999Z" stroke="black"/>
</g>
</g>
<g filter="url(#filter7_d)">
<g filter="url(#filter8_dd)">
<ellipse cx="47.1114" cy="13.475" rx="1.18069" ry="1.225" fill="#C92AF1"/>
<path d="M47.1114 15.2C48.0569 15.2 48.7921 14.4102 48.7921 13.475C48.7921 12.5398 48.0569 11.75 47.1114 11.75C46.166 11.75 45.4307 12.5398 45.4307 13.475C45.4307 14.4102 46.166 15.2 47.1114 15.2Z" stroke="black"/>
</g>
</g>
<g filter="url(#filter9_d)">
<g filter="url(#filter10_dd)">
<ellipse cx="43.1758" cy="24.9083" rx="1.18069" ry="1.225" fill="#C92AF1"/>
<path d="M43.1758 26.6333C44.1212 26.6333 44.8565 25.8435 44.8565 24.9083C44.8565 23.9732 44.1212 23.1833 43.1758 23.1833C42.2304 23.1833 41.4951 23.9732 41.4951 24.9083C41.4951 25.8435 42.2304 26.6333 43.1758 26.6333Z" stroke="black"/>
</g>
</g>
<g filter="url(#filter11_d)">
<path d="M55.7699 8.16667V42.0583L58.5248 45.7333" stroke="black"/>
</g>
<g filter="url(#filter12_d)">
<path d="M64.4283 11.025V19.6L55.7699 26.95" stroke="black"/>
</g>
<g filter="url(#filter13_d)">
<path d="M47.1114 15.1083V18.375L55.3763 23.275" stroke="black"/>
</g>
<g filter="url(#filter14_d)">
<path d="M43.1758 26.5417V29.8083L55.7699 36.3417" stroke="black"/>
</g>
<g filter="url(#filter15_dd)">
<ellipse cx="70.7253" cy="20.0083" rx="1.18069" ry="1.225" fill="#C92AF1"/>
<path d="M70.7253 21.7333C71.6708 21.7333 72.406 20.9435 72.406 20.0083C72.406 19.0732 71.6708 18.2833 70.7253 18.2833C69.7799 18.2833 69.0446 19.0732 69.0446 20.0083C69.0446 20.9435 69.7799 21.7333 70.7253 21.7333Z" stroke="black"/>
</g>
<g filter="url(#filter16_d)">
<path d="M70.7253 21.6417V26.5417L55.7699 33.4833" stroke="black"/>
</g>
<defs>
<filter id="filter0_d" x="0.362217" y="16.8498" width="92.689" height="39.9976" filterUnits="userSpaceOnUse" color-interpolation-filters="sRGB">
<feFlood flood-opacity="0" result="BackgroundImageFix"/>
<feColorMatrix in="SourceAlpha" type="matrix" values="0 0 0 0 0 0 0 0 0 0 0 0 0 0 0 0 0 0 127 0"/>
<feOffset dy="4"/>
<feGaussianBlur stdDeviation="2"/>
<feColorMatrix type="matrix" values="0 0 0 0 0 0 0 0 0 0 0 0 0 0 0 0 0 0 0.4 0"/>
<feBlend mode="normal" in2="BackgroundImageFix" result="effect1_dropShadow"/>
<feBlend mode="normal" in="SourceGraphic" in2="effect1_dropShadow" result="shape"/>
</filter>
<filter id="filter1_d" x="27.7624" y="0" width="57.5892" height="57" filterUnits="userSpaceOnUse" color-interpolation-filters="sRGB">
<feFlood flood-opacity="0" result="BackgroundImageFix"/>
<feColorMatrix in="SourceAlpha" type="matrix" values="0 0 0 0 0 0 0 0 0 0 0 0 0 0 0 0 0 0 127 0"/>
<feOffset dy="4"/>
<feGaussianBlur stdDeviation="2"/>
<feColorMatrix type="matrix" values="0 0 0 0 0 0 0 0 0 0 0 0 0 0 0 0 0 0 0.6 0"/>
<feBlend mode="normal" in2="BackgroundImageFix" result="effect1_dropShadow"/>
<feBlend mode="normal" in="SourceGraphic" in2="effect1_dropShadow" result="shape"/>
</filter>
<filter id="filter2_d" x="58.2476" y="7.16667" width="12.3614" height="12.45" filterUnits="userSpaceOnUse" color-interpolation-filters="sRGB">
<feFlood flood-opacity="0" result="BackgroundImageFix"/>
<feColorMatrix in="SourceAlpha" type="matrix" values="0 0 0 0 0 0 0 0 0 0 0 0 0 0 0 0 0 0 127 0"/>
<feOffset dy="4"/>
<feGaussianBlur stdDeviation="2"/>
<feColorMatrix type="matrix" values="0 0 0 0 0 0 0 0 0 0 0 0 0 0 0 0 0 0 0.25 0"/>
<feBlend mode="normal" in2="BackgroundImageFix" result="effect1_dropShadow"/>
<feBlend mode="normal" in="SourceGraphic" in2="effect1_dropShadow" result="shape"/>
</filter>
<filter id="filter3_dd" x="58.2476" y="7.16667" width="12.3614" height="12.45" filterUnits="userSpaceOnUse" color-interpolation-filters="sRGB">
<feFlood flood-opacity="0" result="BackgroundImageFix"/>
<feColorMatrix in="SourceAlpha" type="matrix" values="0 0 0 0 0 0 0 0 0 0 0 0 0 0 0 0 0 0 127 0"/>
<feOffset dy="4"/>
<feGaussianBlur stdDeviation="2"/>
<feColorMatrix type="matrix" values="0 0 0 0 0 0 0 0 0 0 0 0 0 0 0 0 0 0 0.25 0"/>
<feBlend mode="normal" in2="BackgroundImageFix" result="effect1_dropShadow"/>
<feColorMatrix in="SourceAlpha" type="matrix" values="0 0 0 0 0 0 0 0 0 0 0 0 0 0 0 0 0 0 127 0"/>
<feOffset dy="4"/>
<feGaussianBlur stdDeviation="2"/>
<feColorMatrix type="matrix" values="0 0 0 0 0 0 0 0 0 0 0 0 0 0 0 0 0 0 0.25 0"/>
<feBlend mode="normal" in2="effect1_dropShadow" result="effect2_dropShadow"/>
<feBlend mode="normal" in="SourceGraphic" in2="effect2_dropShadow" result="shape"/>
</filter>
<filter id="filter4_d" x="80.2732" y="14.489" width="30.3447" height="41.9717" filterUnits="userSpaceOnUse" color-interpolation-filters="sRGB">
<feFlood flood-opacity="0" result="BackgroundImageFix"/>
<feColorMatrix in="SourceAlpha" type="matrix" values="0 0 0 0 0 0 0 0 0 0 0 0 0 0 0 0 0 0 127 0"/>
<feOffset dy="4"/>
<feGaussianBlur stdDeviation="2"/>
<feColorMatrix type="matrix" values="0 0 0 0 0 0 0 0 0 0 0 0 0 0 0 0 0 0 0.4 0"/>
<feBlend mode="normal" in2="BackgroundImageFix" result="effect1_dropShadow"/>
<feBlend mode="normal" in="SourceGraphic" in2="effect1_dropShadow" result="shape"/>
</filter>
<filter id="filter5_d" x="49.5892" y="3.89999" width="12.3614" height="12.45" filterUnits="userSpaceOnUse" color-interpolation-filters="sRGB">
<feFlood flood-opacity="0" result="BackgroundImageFix"/>
<feColorMatrix in="SourceAlpha" type="matrix" values="0 0 0 0 0 0 0 0 0 0 0 0 0 0 0 0 0 0 127 0"/>
<feOffset dy="4"/>
<feGaussianBlur stdDeviation="2"/>
<feColorMatrix type="matrix" values="0 0 0 0 0 0 0 0 0 0 0 0 0 0 0 0 0 0 0.25 0"/>
<feBlend mode="normal" in2="BackgroundImageFix" result="effect1_dropShadow"/>
<feBlend mode="normal" in="SourceGraphic" in2="effect1_dropShadow" result="shape"/>
</filter>
<filter id="filter6_dd" x="49.5892" y="3.89999" width="12.3614" height="12.45" filterUnits="userSpaceOnUse" color-interpolation-filters="sRGB">
<feFlood flood-opacity="0" result="BackgroundImageFix"/>
<feColorMatrix in="SourceAlpha" type="matrix" values="0 0 0 0 0 0 0 0 0 0 0 0 0 0 0 0 0 0 127 0"/>
<feOffset dy="4"/>
<feGaussianBlur stdDeviation="2"/>
<feColorMatrix type="matrix" values="0 0 0 0 0 0 0 0 0 0 0 0 0 0 0 0 0 0 0.25 0"/>
<feBlend mode="normal" in2="BackgroundImageFix" result="effect1_dropShadow"/>
<feColorMatrix in="SourceAlpha" type="matrix" values="0 0 0 0 0 0 0 0 0 0 0 0 0 0 0 0 0 0 127 0"/>
<feOffset dy="4"/>
<feGaussianBlur stdDeviation="2"/>
<feColorMatrix type="matrix" values="0 0 0 0 0 0 0 0 0 0 0 0 0 0 0 0 0 0 0.25 0"/>
<feBlend mode="normal" in2="effect1_dropShadow" result="effect2_dropShadow"/>
<feBlend mode="normal" in="SourceGraphic" in2="effect2_dropShadow" result="shape"/>
</filter>
<filter id="filter7_d" x="40.9307" y="11.25" width="12.3614" height="12.45" filterUnits="userSpaceOnUse" color-interpolation-filters="sRGB">
<feFlood flood-opacity="0" result="BackgroundImageFix"/>
<feColorMatrix in="SourceAlpha" type="matrix" values="0 0 0 0 0 0 0 0 0 0 0 0 0 0 0 0 0 0 127 0"/>
<feOffset dy="4"/>
<feGaussianBlur stdDeviation="2"/>
<feColorMatrix type="matrix" values="0 0 0 0 0 0 0 0 0 0 0 0 0 0 0 0 0 0 0.25 0"/>
<feBlend mode="normal" in2="BackgroundImageFix" result="effect1_dropShadow"/>
<feBlend mode="normal" in="SourceGraphic" in2="effect1_dropShadow" result="shape"/>
</filter>
<filter id="filter8_dd" x="40.9307" y="11.25" width="12.3614" height="12.45" filterUnits="userSpaceOnUse" color-interpolation-filters="sRGB">
<feFlood flood-opacity="0" result="BackgroundImageFix"/>
<feColorMatrix in="SourceAlpha" type="matrix" values="0 0 0 0 0 0 0 0 0 0 0 0 0 0 0 0 0 0 127 0"/>
<feOffset dy="4"/>
<feGaussianBlur stdDeviation="2"/>
<feColorMatrix type="matrix" values="0 0 0 0 0 0 0 0 0 0 0 0 0 0 0 0 0 0 0.25 0"/>
<feBlend mode="normal" in2="BackgroundImageFix" result="effect1_dropShadow"/>
<feColorMatrix in="SourceAlpha" type="matrix" values="0 0 0 0 0 0 0 0 0 0 0 0 0 0 0 0 0 0 127 0"/>
<feOffset dy="4"/>
<feGaussianBlur stdDeviation="2"/>
<feColorMatrix type="matrix" values="0 0 0 0 0 0 0 0 0 0 0 0 0 0 0 0 0 0 0.25 0"/>
<feBlend mode="normal" in2="effect1_dropShadow" result="effect2_dropShadow"/>
<feBlend mode="normal" in="SourceGraphic" in2="effect2_dropShadow" result="shape"/>
</filter>
<filter id="filter9_d" x="36.9951" y="22.6833" width="12.3614" height="12.45" filterUnits="userSpaceOnUse" color-interpolation-filters="sRGB">
<feFlood flood-opacity="0" result="BackgroundImageFix"/>
<feColorMatrix in="SourceAlpha" type="matrix" values="0 0 0 0 0 0 0 0 0 0 0 0 0 0 0 0 0 0 127 0"/>
<feOffset dy="4"/>
<feGaussianBlur stdDeviation="2"/>
<feColorMatrix type="matrix" values="0 0 0 0 0 0 0 0 0 0 0 0 0 0 0 0 0 0 0.25 0"/>
<feBlend mode="normal" in2="BackgroundImageFix" result="effect1_dropShadow"/>
<feBlend mode="normal" in="SourceGraphic" in2="effect1_dropShadow" result="shape"/>
</filter>
<filter id="filter10_dd" x="36.9951" y="22.6833" width="12.3614" height="12.45" filterUnits="userSpaceOnUse" color-interpolation-filters="sRGB">
<feFlood flood-opacity="0" result="BackgroundImageFix"/>
<feColorMatrix in="SourceAlpha" type="matrix" values="0 0 0 0 0 0 0 0 0 0 0 0 0 0 0 0 0 0 127 0"/>
<feOffset dy="4"/>
<feGaussianBlur stdDeviation="2"/>
<feColorMatrix type="matrix" values="0 0 0 0 0 0 0 0 0 0 0 0 0 0 0 0 0 0 0.25 0"/>
<feBlend mode="normal" in2="BackgroundImageFix" result="effect1_dropShadow"/>
<feColorMatrix in="SourceAlpha" type="matrix" values="0 0 0 0 0 0 0 0 0 0 0 0 0 0 0 0 0 0 127 0"/>
<feOffset dy="4"/>
<feGaussianBlur stdDeviation="2"/>
<feColorMatrix type="matrix" values="0 0 0 0 0 0 0 0 0 0 0 0 0 0 0 0 0 0 0.25 0"/>
<feBlend mode="normal" in2="effect1_dropShadow" result="effect2_dropShadow"/>
<feBlend mode="normal" in="SourceGraphic" in2="effect2_dropShadow" result="shape"/>
</filter>
<filter id="filter11_d" x="54.2699" y="8.16667" width="7.65502" height="42.8666" filterUnits="userSpaceOnUse" color-interpolation-filters="sRGB">
<feFlood flood-opacity="0" result="BackgroundImageFix"/>
<feColorMatrix in="SourceAlpha" type="matrix" values="0 0 0 0 0 0 0 0 0 0 0 0 0 0 0 0 0 0 127 0"/>
<feOffset dx="1" dy="3"/>
<feGaussianBlur stdDeviation="1"/>
<feColorMatrix type="matrix" values="0 0 0 0 0 0 0 0 0 0 0 0 0 0 0 0 0 0 0.6 0"/>
<feBlend mode="normal" in2="BackgroundImageFix" result="effect1_dropShadow"/>
<feBlend mode="normal" in="SourceGraphic" in2="effect1_dropShadow" result="shape"/>
</filter>
<filter id="filter12_d" x="53.4463" y="11.025" width="13.482" height="22.3062" filterUnits="userSpaceOnUse" color-interpolation-filters="sRGB">
<feFlood flood-opacity="0" result="BackgroundImageFix"/>
<feColorMatrix in="SourceAlpha" type="matrix" values="0 0 0 0 0 0 0 0 0 0 0 0 0 0 0 0 0 0 127 0"/>
<feOffset dy="4"/>
<feGaussianBlur stdDeviation="1"/>
<feColorMatrix type="matrix" values="0 0 0 0 0 0 0 0 0 0 0 0 0 0 0 0 0 0 0.6 0"/>
<feBlend mode="normal" in2="BackgroundImageFix" result="effect1_dropShadow"/>
<feBlend mode="normal" in="SourceGraphic" in2="effect1_dropShadow" result="shape"/>
</filter>
<filter id="filter13_d" x="44.6114" y="15.1083" width="13.0199" height="14.5968" filterUnits="userSpaceOnUse" color-interpolation-filters="sRGB">
<feFlood flood-opacity="0" result="BackgroundImageFix"/>
<feColorMatrix in="SourceAlpha" type="matrix" values="0 0 0 0 0 0 0 0 0 0 0 0 0 0 0 0 0 0 127 0"/>
<feOffset dy="4"/>
<feGaussianBlur stdDeviation="1"/>
<feColorMatrix type="matrix" values="0 0 0 0 0 0 0 0 0 0 0 0 0 0 0 0 0 0 0.6 0"/>
<feBlend mode="normal" in2="BackgroundImageFix" result="effect1_dropShadow"/>
<feBlend mode="normal" in="SourceGraphic" in2="effect1_dropShadow" result="shape"/>
</filter>
<filter id="filter14_d" x="40.6758" y="26.5417" width="17.3243" height="16.2438" filterUnits="userSpaceOnUse" color-interpolation-filters="sRGB">
<feFlood flood-opacity="0" result="BackgroundImageFix"/>
<feColorMatrix in="SourceAlpha" type="matrix" values="0 0 0 0 0 0 0 0 0 0 0 0 0 0 0 0 0 0 127 0"/>
<feOffset dy="4"/>
<feGaussianBlur stdDeviation="1"/>
<feColorMatrix type="matrix" values="0 0 0 0 0 0 0 0 0 0 0 0 0 0 0 0 0 0 0.6 0"/>
<feBlend mode="normal" in2="BackgroundImageFix" result="effect1_dropShadow"/>
<feBlend mode="normal" in="SourceGraphic" in2="effect1_dropShadow" result="shape"/>
</filter>
<filter id="filter15_dd" x="64.5446" y="17.7833" width="12.3614" height="12.45" filterUnits="userSpaceOnUse" color-interpolation-filters="sRGB">
<feFlood flood-opacity="0" result="BackgroundImageFix"/>
<feColorMatrix in="SourceAlpha" type="matrix" values="0 0 0 0 0 0 0 0 0 0 0 0 0 0 0 0 0 0 127 0"/>
<feOffset dy="4"/>
<feGaussianBlur stdDeviation="2"/>
<feColorMatrix type="matrix" values="0 0 0 0 0 0 0 0 0 0 0 0 0 0 0 0 0 0 0.25 0"/>
<feBlend mode="normal" in2="BackgroundImageFix" result="effect1_dropShadow"/>
<feColorMatrix in="SourceAlpha" type="matrix" values="0 0 0 0 0 0 0 0 0 0 0 0 0 0 0 0 0 0 127 0"/>
<feOffset dy="4"/>
<feGaussianBlur stdDeviation="2"/>
<feColorMatrix type="matrix" values="0 0 0 0 0 0 0 0 0 0 0 0 0 0 0 0 0 0 0.25 0"/>
<feBlend mode="normal" in2="effect1_dropShadow" result="effect2_dropShadow"/>
<feBlend mode="normal" in="SourceGraphic" in2="effect2_dropShadow" result="shape"/>
</filter>
<filter id="filter16_d" x="53.5594" y="21.6417" width="19.666" height="18.2952" filterUnits="userSpaceOnUse" color-interpolation-filters="sRGB">
<feFlood flood-opacity="0" result="BackgroundImageFix"/>
<feColorMatrix in="SourceAlpha" type="matrix" values="0 0 0 0 0 0 0 0 0 0 0 0 0 0 0 0 0 0 127 0"/>
<feOffset dy="4"/>
<feGaussianBlur stdDeviation="1"/>
<feColorMatrix type="matrix" values="0 0 0 0 0 0 0 0 0 0 0 0 0 0 0 0 0 0 0.6 0"/>
<feBlend mode="normal" in2="BackgroundImageFix" result="effect1_dropShadow"/>
<feBlend mode="normal" in="SourceGraphic" in2="effect1_dropShadow" result="shape"/>
</filter>
<linearGradient id="paint0_linear" x1="56.557" y1="0" x2="56.557" y2="49" gradientUnits="userSpaceOnUse">
<stop stop-color="white"/>
<stop offset="1" stop-color="white" stop-opacity="0"/>
</linearGradient>
</defs>
</svg>
